<svg width="30" height="30" viewBox="0 0 30 30" fill="none" xmlns="http://www.w3.org/2000/svg">
<g clip-path="url(#clip0_1115_138)">
<path d="M29.4962 13.4112L16.0362 1.14647C15.4454 0.608057 14.5544 0.608116 13.9639 1.14642L0.50381 13.4112C0.0305489 13.8425 -0.125779 14.5069 0.105432 15.1039C0.336701 15.701 0.899786 16.0867 1.54004 16.0867H3.68984V28.375C3.68984 28.8622 4.08488 29.2572 4.57208 29.2572H11.9498C12.437 29.2572 12.8321 28.8623 12.8321 28.375V20.9139H17.1681V28.3751C17.1681 28.8623 17.5632 29.2573 18.0504 29.2573H25.4278C25.915 29.2573 26.31 28.8623 26.31 28.3751V16.0867H28.4602C29.1004 16.0867 29.6636 15.7009 29.8948 15.1039C30.1258 14.5069 29.9694 13.8425 29.4962 13.4112Z" fill="white"/>
<path opacity="0.6" d="M26.0795 2.50366H20.1546L26.9618 8.69326V3.38585C26.9618 2.89864 26.5668 2.50366 26.0795 2.50366Z" fill="white"/>
</g>
<defs>
<clipPath id="clip0_1115_138">
<rect width="30" height="30" fill="white"/>
</clipPath>
</defs>
</svg>
